<svg width="800" height="400" viewBox="0 0 800 400" fill="none" xmlns="http://www.w3.org/2000/svg">
<g clip-path="url(#clip0)">
<path d="M326.469 147.625L356 226.094L385.461 147.625H408.453V250H390.734V216.25L392.492 171.109L362.258 250H349.531L319.367 171.18L321.125 216.25V250H303.406V147.625H326.469ZM454.508 225.531L469.977 173.922H488.188L457.953 261.531C453.312 274.328 445.438 280.727 434.328 280.727C431.844 280.727 429.102 280.305 426.102 279.461V266.242L429.336 266.453C433.648 266.453 436.883 265.656 439.039 264.062C441.242 262.516 442.977 259.891 444.242 256.188L446.703 249.648L419.984 173.922H438.406L454.508 225.531ZM553.227 223.633C553.227 219.133 551.633 215.664 548.445 213.227C545.305 210.789 539.609 208.328 531.359 205.844C523.109 203.359 516.547 200.594 511.672 197.547C502.344 191.688 497.68 184.047 497.68 174.625C497.68 166.375 501.031 159.578 507.734 154.234C514.484 148.891 523.227 146.219 533.961 146.219C541.086 146.219 547.438 147.531 553.016 150.156C558.594 152.781 562.977 156.531 566.164 161.406C569.352 166.234 570.945 171.602 570.945 177.508H553.227C553.227 172.164 551.539 167.992 548.164 164.992C544.836 161.945 540.055 160.422 533.82 160.422C528.008 160.422 523.484 161.664 520.25 164.148C517.062 166.633 515.469 170.102 515.469 174.555C515.469 178.305 517.203 181.445 520.672 183.977C524.141 186.461 529.859 188.898 537.828 191.289C545.797 193.633 552.195 196.328 557.023 199.375C561.852 202.375 565.391 205.844 567.641 209.781C569.891 213.672 571.016 218.242 571.016 223.492C571.016 232.023 567.734 238.82 561.172 243.883C554.656 248.898 545.797 251.406 534.594 251.406C527.188 251.406 520.367 250.047 514.133 247.328C507.945 244.562 503.117 240.766 499.648 235.938C496.227 231.109 494.516 225.484 494.516 219.062H512.305C512.305 224.875 514.227 229.375 518.07 232.562C521.914 235.75 527.422 237.344 534.594 237.344C540.781 237.344 545.422 236.102 548.516 233.617C551.656 231.086 553.227 227.758 553.227 223.633ZM604.414 211.961V250H586.625V147.625H625.789C637.227 147.625 646.297 150.602 653 156.555C659.75 162.508 663.125 170.383 663.125 180.18C663.125 190.211 659.82 198.016 653.211 203.594C646.648 209.172 637.438 211.961 625.578 211.961H604.414ZM604.414 197.688H625.789C632.117 197.688 636.945 196.211 640.273 193.258C643.602 190.258 645.266 185.945 645.266 180.32C645.266 174.789 643.578 170.383 640.203 167.102C636.828 163.773 632.188 162.062 626.281 161.969H604.414V197.688ZM723.523 226.164H683.867L675.57 250H657.078L695.75 147.625H711.711L750.453 250H731.891L723.523 226.164ZM688.859 211.82H718.531L703.695 169.352L688.859 211.82Z" fill="white"/>
<path d="M291.525 236.791C276.273 221.701 257.012 212.083 235.824 208.977C233.119 208.577 230.602 210.468 230.214 213.16C229.813 215.865 231.691 218.382 234.396 218.77C251.728 221.3 267.707 228.738 280.793 240.297C264.701 254.498 244.039 262.512 222.324 262.901C201.687 263.289 181.75 256.739 165.584 244.43C214.861 238.093 253.343 195.929 253.606 145.249C253.619 143.934 253.08 142.644 252.166 141.73C251.177 140.728 249.837 140.177 248.547 140.277C227.559 140.415 207.522 146.977 190.579 159.262C188.375 160.865 187.874 163.971 189.477 166.175C190.253 167.239 191.406 167.94 192.708 168.153C194.01 168.366 195.325 168.053 196.39 167.277C210.227 157.233 226.482 151.41 243.525 150.358C242.123 172.787 232.43 193.75 216.05 209.616C201.875 223.354 183.992 231.969 164.807 234.549C195.2 195.278 192.77 138.449 157.318 102.609C156.417 101.695 155.127 101.169 153.8 101.169C152.472 101.169 151.182 101.695 150.281 102.609C135.191 117.862 125.573 137.122 122.468 158.298C122.067 161.003 123.945 163.52 126.663 163.92C129.368 164.296 131.872 162.418 132.26 159.738C134.802 142.419 142.228 126.427 153.787 113.341C168.539 130.084 176.416 151.648 175.99 174.352C175.627 194 169.065 212.672 157.331 228.025C151.045 179.161 109.406 140.828 59.3526 140.315C58.0002 140.302 56.7479 140.816 55.7961 141.743C54.8695 142.669 54.331 143.947 54.331 145.261V154.453C54.331 154.616 54.3435 154.779 54.356 154.954C56.0716 171.797 62.1076 188.027 71.8253 201.915C73.3907 204.144 76.4713 204.695 78.7254 203.129C79.8023 202.365 80.5287 201.238 80.7666 199.936C80.992 198.634 80.704 197.319 79.9526 196.242C71.2493 183.807 65.8269 169.28 64.249 154.203V150.408C86.4144 151.886 107.152 161.604 122.831 177.921C136.38 192.022 144.896 209.766 147.438 228.776C108.454 198.746 51.9516 201.702 16.462 236.478C15.5103 237.417 14.9843 238.656 14.9843 239.984C14.9718 241.299 15.5103 242.589 16.437 243.515L22.9113 249.99C23.0365 250.115 23.1617 250.228 23.2995 250.353C41.0067 264.779 63.3724 272.731 86.2892 272.731H86.3017H86.4895C104.397 272.718 121.967 267.91 137.295 258.818C138.434 258.142 139.236 257.065 139.561 255.788C139.887 254.51 139.699 253.17 139.023 252.043C138.346 250.904 137.269 250.102 135.992 249.777C134.702 249.451 133.375 249.639 132.235 250.315C118.448 258.493 102.644 262.826 86.502 262.851H86.2516C65.7017 262.838 45.6527 255.738 29.7487 242.852L27.0688 240.172C43.7993 225.508 65.2884 217.668 87.8795 218.031C111.285 218.407 133.237 227.586 149.717 243.866L149.73 243.878C149.742 243.891 149.755 243.904 149.755 243.904C168.652 262.588 193.81 272.869 220.596 272.869H220.609C247.42 272.869 272.603 262.562 291.513 243.866C292.439 242.939 292.978 241.662 292.978 240.347C293.003 238.995 292.464 237.717 291.525 236.791Z" fill="white"/>
</g>
<defs>
<clipPath id="clip0">
<rect width="800" height="400" fill="white"/>
</clipPath>
</defs>
</svg>
