<svg width="300" height="200" viewBox="0 0 300 200" fill="none" xmlns="http://www.w3.org/2000/svg">
<g clip-path="url(#clip0)">
<path d="M293.534 151.966C277.615 136.217 257.513 126.179 235.399 122.938C232.576 122.519 229.949 124.493 229.543 127.303C229.125 130.126 231.086 132.753 233.909 133.158C251.997 135.798 268.675 143.562 282.333 155.625C265.538 170.447 243.973 178.811 221.309 179.217C199.77 179.622 178.963 172.786 162.09 159.939C213.52 153.325 253.683 109.319 253.958 56.4249C253.971 55.0526 253.409 53.7064 252.455 52.7523C251.422 51.7067 250.024 51.1316 248.678 51.2362C226.773 51.3799 205.861 58.2286 188.177 71.0501C185.877 72.7231 185.354 75.9644 187.027 78.2647C187.837 79.3757 189.04 80.1076 190.399 80.3298C191.758 80.5519 193.131 80.2252 194.242 79.4149C208.684 68.9328 225.649 62.8553 243.437 61.7574C241.973 85.1656 231.857 107.045 214.761 123.604C199.966 137.942 181.302 146.934 161.279 149.626C193 108.639 190.464 49.3279 153.463 11.9219C152.522 10.9678 151.176 10.4188 149.791 10.4188C148.405 10.4188 147.059 10.9678 146.118 11.9219C130.369 27.841 120.331 47.9425 117.09 70.0437C116.672 72.8668 118.632 75.4939 121.468 75.9121C124.291 76.3042 126.905 74.3437 127.311 71.5468C129.964 53.4711 137.714 36.7808 149.778 23.1228C165.174 40.5973 173.395 63.1036 172.951 86.7994C172.572 107.306 165.723 126.793 153.477 142.817C146.915 91.8182 103.458 51.8112 51.2176 51.2754C49.806 51.2623 48.499 51.7982 47.5057 52.7653C46.5385 53.7325 45.9765 55.0656 45.9765 56.438V66.0313C45.9765 66.2012 45.9896 66.3711 46.0027 66.5541C47.7932 84.1331 54.0929 101.072 64.2352 115.566C65.8689 117.893 69.0841 118.468 71.4367 116.834C72.5607 116.037 73.3188 114.86 73.5671 113.501C73.8024 112.142 73.5018 110.77 72.7176 109.646C63.634 96.6671 57.9747 81.506 56.3279 65.7699V61.8097C79.4616 63.352 101.105 73.4942 117.469 90.5243C131.611 105.241 140.498 123.761 143.151 143.601C102.465 112.26 43.4932 115.344 6.45311 151.639C5.4598 152.619 4.91087 153.913 4.91087 155.299C4.8978 156.671 5.4598 158.017 6.42698 158.984L13.1841 165.742C13.3148 165.872 13.4455 165.99 13.5893 166.121C32.0701 181.177 55.413 189.477 79.3309 189.477H79.344H79.54C98.23 189.463 116.567 184.445 132.565 174.956C133.754 174.25 134.591 173.126 134.93 171.793C135.27 170.46 135.074 169.061 134.368 167.885C133.663 166.696 132.539 165.859 131.205 165.519C129.859 165.18 128.474 165.376 127.284 166.081C112.894 174.616 96.4002 179.138 79.5531 179.164H79.2917C57.844 179.151 36.9191 171.741 20.3203 158.292L17.5233 155.495C34.9847 140.19 57.4127 132.008 80.9908 132.387C105.418 132.779 128.33 142.36 145.53 159.35L145.543 159.363C145.556 159.377 145.569 159.39 145.569 159.39C165.292 178.89 191.549 189.62 219.506 189.62H219.519C247.501 189.62 273.785 178.864 293.521 159.35C294.488 158.383 295.05 157.05 295.05 155.678C295.076 154.266 294.514 152.933 293.534 151.966Z" fill="white"/>
</g>
<defs>
<clipPath id="clip0">
<rect width="300" height="200" fill="white"/>
</clipPath>
</defs>
</svg>
